# xmcd
#
# Track frame offsets: 
#        150
#        14507
#        27828
#        40858
#        55161
#        71625
#        85934
#        99475
#        113573
#        129786
#        146838
#        162466
#        179826
#        195181
#        211018
#        225220
#        243121
#        256834
#        276138
#        290978
#
# Disc length: 4067 seconds
#
# Revision: 0
# Processed by: cddbd v1.5.2PL0 Copyright (c) Steve Scherf et al.
# Submitted via: ExactAudioCopyFreeDBPlugin 1.0
#
DISCID=120fe114
DTITLE=Voll auf die Zwölf - Voll auf die 12 - Après Ski Party Hits 201
DTITLE=1 [CD 1-2)
DYEAR=1900
DGENRE=Apres Ski
TTITLE0=Buddy - Dreh den Propeller
TTITLE1=Yvi and St. Anton Allstars - Après Ski (mein Herz schlägt für Ap
TTITLE1=res Ski)
TTITLE2=Mike der Bademeister - Eskimo (Der BRRR-Song)
TTITLE3=Pat - Horizont
TTITLE4=Michael Micheiloff - Himbeereis zum Frühstück
TTITLE5=Almklausi - Eine Skifahrt die ist lustig
TTITLE6=Vosa - Barfuß im Regen
TTITLE7=Reiner Irrsinn - Deine Chance
TTITLE8=Jay - Ist das ein Sauladen hier
TTITLE9=Roland Brüggen - Rut sin die Ruuse
TTITLE10=D'R Frank - Lange Naach
TTITLE11=Kölsche Wellenreiter - Superjeile Zick
TTITLE12=Bergstreet Boys - Blau wie der Enzian
TTITLE13=Bruno Belmondo - Der Teufel hat den Sex gemacht
TTITLE14=Coco Caribe - La Bomba
TTITLE15=Lara - Baila Mi Ritmo
TTITLE16=Der letzte Schrei - 1000 Schlösser
TTITLE17=Zeitlos! - Stark
TTITLE18=Masha - Every kiss tell a story
TTITLE19=Rockstars United - Rock n Roll alls nite
EXTD=
EXTT0=
EXTT1=
EXTT2=
EXTT3=
EXTT4=
EXTT5=
EXTT6=
EXTT7=
EXTT8=
EXTT9=
EXTT10=
EXTT11=
EXTT12=
EXTT13=
EXTT14=
EXTT15=
EXTT16=
EXTT17=
EXTT18=
EXTT19=
PLAYORDER=
